<svg xmlns="http://www.w3.org/2000/svg" width="28" height="30" viewBox="0 0 28 30"><defs><linearGradient id="5e7ha" x1="27.25" x2="7.5" y1="21.56" y2="21.56" gradientUnits="userSpaceOnUse"><stop offset="0" stop-color="#fff"/><stop offset="1" stop-color="#476eeb"/></linearGradient><linearGradient id="5e7hb" x1="18.24" x2="3.2" y1="30" y2="12.63" gradientUnits="userSpaceOnUse"><stop offset="0" stop-color="#fff"/><stop offset="1" stop-color="#476eeb"/></linearGradient><linearGradient id="5e7hc" x1="0" x2="27.25" y1="16.65" y2="4.45" gradientUnits="userSpaceOnUse"><stop offset="0" stop-color="#fff"/><stop offset="1" stop-color="#476eeb"/></linearGradient></defs><g><g><g><g><g/><g><path fill="url(#5e7ha)" d="M26.476 24.655a3.75 3.75 0 0 0-2.976-6.031 3.764 3.764 0 0 0-2.777 1.222A7.5 7.5 0 0 1 7.5 15c0 7.248 5.699 12.57 11.911 13.069.571.046 1.621.13 3.092-.079 1.412-.787 3.038-2.176 3.973-3.335z"/></g><g><path fill="url(#5e7hb)" d="M7.505 15c0 7.249 5.875 13.125 13.123 13.125.637 0 1.264-.045 1.877-.133A14.926 14.926 0 0 1 15.004 30c-6.917 0-11.313-4.474-12.99-7.497a13.325 13.325 0 0 1-.116-2.587C2.24 13.192 7.756 7.5 15.004 7.5A7.5 7.5 0 0 0 7.505 15z"/></g><g><path fill="url(#5e7hc)" d="M26.21 5.032A14.964 14.964 0 0 0 15 0C6.716 0 0 6.715 0 14.998c0 2.733.731 5.295 2.008 7.502a13.233 13.233 0 0 1-.133-1.877C1.875 13.375 7.751 7.499 15 7.499a7.485 7.485 0 0 1 5.785 2.726 3.79 3.79 0 0 0 2.715 1.149 3.75 3.75 0 0 0 3.034-5.954c-.025-.041-.24-.3-.324-.388z"/></g></g></g></g></g></svg>
